<?xml version="1.0" encoding="utf-8"?>
<!-- Generator: Adobe Illustrator 22.0.1, SVG Export Plug-In . SVG Version: 6.00 Build 0)  -->
<svg version="1.1" id="Layer_1" xmlns="http://www.w3.org/2000/svg" xmlns:xlink="http://www.w3.org/1999/xlink" x="0px" y="0px"
	 viewBox="0 0 89.4 77.9" style="enable-background:new 0 0 89.4 77.9;" xml:space="preserve">
<style type="text/css">
	.st0{fill:#FFFFFF;}
</style>
<path class="st0" d="M75.4,52c0-6-4.7-11-10.6-11.5c-0.1,0-0.2-0.1-0.4-0.1c-0.1,0-0.2,0-0.3,0c-0.1,0-0.2,0-0.3,0
	c-0.1,0-0.2,0-0.4,0.1C57.6,41,52.9,46,52.9,52c0,6,4.7,11,10.6,11.5c0.1,0,0.2,0.1,0.4,0.1c0.1,0,0.2,0,0.3,0c0.1,0,0.2,0,0.3,0
	c0.1,0,0.2,0,0.4-0.1C70.7,63,75.4,58,75.4,52z M64.2,60.8c-4.7-0.2-8.4-4-8.4-8.8c0-4.7,3.8-8.6,8.4-8.8c4.7,0.2,8.4,4,8.4,8.8
	C72.6,56.7,68.8,60.6,64.2,60.8z"/>
<path class="st0" d="M40.1,40.4h-4.5c-0.8,0-1.4,0.6-1.4,1.4s0.6,1.4,1.4,1.4h4.5c4.6,0,8.4,3.8,8.4,8.4s-3.8,8.4-8.4,8.4H18
	c-0.8,0-1.4,0.6-1.4,1.4s0.6,1.4,1.4,1.4h22.1c6.2,0,11.2-5,11.2-11.2S46.3,40.4,40.1,40.4z"/>
<path class="st0" d="M75.4,17.7c0-0.8-0.6-1.4-1.4-1.4s-1.4,0.6-1.4,1.4v10.1c0,0,0,0.1,0,0.1c0,0,0,0.1,0,0.1
	c0,4.8-3.9,8.8-8.8,8.8c-4.8,0-8.8-3.9-8.8-8.8c0,0,0-0.1,0-0.1c0,0,0-0.1,0-0.1V17.7c0-0.8-0.6-1.4-1.4-1.4c-0.4,0-0.8,0.2-1,0.5
	L33.4,36L14.2,16.7c-0.3-0.3-0.7-0.4-1.1-0.4c0,0-0.1,0-0.1,0c-0.8,0-1.4,0.6-1.4,1.4v41.8c0,0.6,0.3,1.1,0.9,1.3
	c0.2,0.1,0.4,0.1,0.5,0.1c0.4,0,0.7-0.1,1-0.4l17.6-17.6c0.5-0.5,0.5-1.4,0-2c-0.5-0.5-1.4-0.5-2,0L14.4,56.2V20.9l18,18
	c0.3,0.3,0.6,0.4,1,0.4c0,0,0,0,0,0c0,0,0,0,0,0c0.4,0,0.7-0.1,1-0.4l17.8-17.8v6.7c0,0,0,0.1,0,0.1c0,0,0,0.1,0,0.1
	c0,6.4,5.2,11.6,11.6,11.6c6.4,0,11.6-5.2,11.6-11.6c0,0,0-0.1,0-0.1c0,0,0-0.1,0-0.1V17.7z"/>
</svg>
